<?xml version="1.0" encoding="utf-8"?>
<!-- Generator: Adobe Illustrator 24.3.0, SVG Export Plug-In . SVG Version: 6.00 Build 0)  -->
<svg version="1.1" id="Layer_1" xmlns="http://www.w3.org/2000/svg" xmlns:xlink="http://www.w3.org/1999/xlink" x="0px" y="0px"
	 width="75px" height="100px" viewBox="0 0 75 100" style="enable-background:new 0 0 75 100;" xml:space="preserve">
<style type="text/css">
	.st0{fill:#01A64E;}
	.st1{fill:#2DABE2;}
	.st2{fill:#ED2027;}
	.st3{fill:#A91E22;}
</style>
<g>
	<g>
		<polygon class="st0" points="24.2,60.9 24.2,70.4 1.2,70.4 1.2,36.5 		"/>
		<polygon class="st1" points="24.2,2.5 1.2,2.5 1.2,27.2 		"/>
		<polygon class="st2" points="42.3,66.6 37.8,71.7 0,32.3 26.3,3.8 37.5,15.5 22.6,31.2 49.1,58.9 44.4,64.2 32.5,51.1 30.5,53.7 
					"/>
		<polygon class="st3" points="56.4,50.6 51,56.7 38.3,43 51,29.7 63.1,43 58.4,48.3 47.8,36.5 45.9,38.6 		"/>
		<polygon class="st2" points="50.5,25.2 35.5,40 27,30.4 51.8,3.8 75,29.5 65.1,40.8 		"/>
	</g>
	<g>
		<path d="M6.7,80l0.7-5.9C7.4,74,7.5,74,7.5,74h0.9c0.1,0,0.1,0.1,0.1,0.2l-0.4,2.9c0,0,0,0.1,0.1,0l1.3-1.4
			c0.1-0.1,0.1-0.1,0.2-0.1h1c0.1,0,0.2,0.1,0.1,0.2l-1.2,1.4c0,0,0,0,0,0.1l0.9,2.8c0,0.1,0,0.2-0.1,0.2h-1c-0.1,0-0.1,0-0.2-0.1
			l-0.6-2c0,0,0,0-0.1,0l-0.6,0.7c0,0,0,0,0,0.1L7.9,80c0,0.1-0.1,0.2-0.2,0.2H6.8C6.7,80.2,6.7,80.1,6.7,80z"/>
		<path d="M14.5,75.6h0.9c0.1,0,0.1,0.1,0.1,0.2L15,80c0,0.1-0.1,0.2-0.2,0.2H14c-0.1,0-0.1-0.1-0.1-0.2l0-0.2c0,0,0-0.1-0.1,0
			c-0.3,0.3-0.6,0.5-1.1,0.5c-0.8,0-1.4-0.5-1.3-1.6l0.4-2.9c0-0.1,0.1-0.2,0.2-0.2h0.9c0.1,0,0.1,0.1,0.1,0.2l-0.3,2.6
			c-0.1,0.5,0.2,0.8,0.6,0.8c0.4,0,0.7-0.3,0.8-0.7l0.3-2.7C14.4,75.7,14.4,75.6,14.5,75.6z"/>
		<path d="M20.1,77.2L19.8,80c0,0.1-0.1,0.2-0.2,0.2h-0.9c-0.1,0-0.1-0.1-0.1-0.2l0.3-2.6c0.1-0.5-0.2-0.8-0.6-0.8
			c-0.4,0-0.8,0.3-0.8,0.8L17.2,80c0,0.1-0.1,0.2-0.2,0.2h-0.9c-0.1,0-0.1-0.1-0.1-0.2l0.5-4.3c0-0.1,0.1-0.2,0.2-0.2h0.9
			c0.1,0,0.1,0.1,0.1,0.2l0,0.2c0,0,0,0.1,0.1,0c0.3-0.3,0.6-0.5,1.1-0.5C19.7,75.6,20.3,76.2,20.1,77.2z"/>
		<path d="M24.8,77.2L24.5,80c0,0.1-0.1,0.2-0.2,0.2h-0.9c-0.1,0-0.1-0.1-0.1-0.2l0.3-2.6c0.1-0.5-0.2-0.8-0.6-0.8
			c-0.4,0-0.8,0.3-0.8,0.8L21.9,80c0,0.1-0.1,0.2-0.2,0.2h-0.9c-0.1,0-0.1-0.1-0.1-0.2l0.7-5.9c0-0.1,0.1-0.2,0.2-0.2h0.9
			c0.1,0,0.1,0.1,0.1,0.2L22.3,76c0,0,0,0.1,0.1,0c0.3-0.3,0.6-0.5,1.1-0.5C24.4,75.6,25,76.2,24.8,77.2z"/>
		<path d="M25.4,80l0.5-4.3c0-0.1,0.1-0.2,0.2-0.2H27c0.1,0,0.1,0.1,0.1,0.2L26.6,80c0,0.1-0.1,0.2-0.2,0.2h-0.9
			C25.5,80.2,25.4,80.1,25.4,80z M26,74.4c0.1-0.4,0.4-0.7,0.8-0.7c0.5,0,0.7,0.3,0.7,0.7c-0.1,0.4-0.4,0.7-0.8,0.7
			C26.2,75.2,25.9,74.9,26,74.4z"/>
		<path d="M34.3,77.1L33.9,80c0,0.1-0.1,0.2-0.2,0.2h-0.9c-0.1,0-0.1-0.1-0.1-0.2l0.3-2.6c0.1-0.5-0.2-0.8-0.6-0.8s-0.7,0.3-0.8,0.8
			L31.4,80c0,0.1-0.1,0.2-0.2,0.2h-0.9c-0.1,0-0.1-0.1-0.1-0.2l0.3-2.6c0.1-0.5-0.2-0.8-0.6-0.8c-0.4,0-0.7,0.2-0.8,0.6L28.8,80
			c0,0.1-0.1,0.2-0.2,0.2h-0.9c-0.1,0-0.1-0.1-0.1-0.2l0.5-4.3c0-0.1,0.1-0.2,0.2-0.2h0.9c0.1,0,0.1,0.1,0.1,0.2l0,0.3
			c0,0,0,0.1,0.1,0c0.3-0.4,0.7-0.5,1.2-0.5c0.6,0,1,0.3,1.2,0.7c0,0,0,0,0.1,0c0.3-0.5,0.8-0.7,1.3-0.7
			C33.9,75.6,34.4,76.1,34.3,77.1z"/>
		<path d="M38.1,75.6h0.9c0.1,0,0.1,0.1,0.1,0.2L38.7,80c0,0.1-0.1,0.2-0.2,0.2h-0.9c-0.1,0-0.1-0.1-0.1-0.2l0-0.2c0,0,0-0.1-0.1,0
			c-0.3,0.3-0.6,0.5-1,0.5c-0.8,0-1.4-0.5-1.5-1.3c-0.1-0.3-0.1-0.7,0-1.1c0.1-0.4,0.1-0.8,0.3-1.1c0.3-0.7,1-1.2,1.8-1.2
			c0.4,0,0.7,0.2,0.9,0.4c0,0,0.1,0,0.1,0l0-0.2C38,75.7,38,75.6,38.1,75.6z M37.7,77.9c0.1-0.4,0-0.7-0.1-0.9
			c-0.1-0.2-0.3-0.3-0.5-0.3c-0.3,0-0.5,0.1-0.6,0.3c-0.2,0.2-0.3,0.5-0.3,0.9c0,0.4,0,0.7,0.1,0.9c0.1,0.2,0.3,0.4,0.6,0.4
			c0.3,0,0.5-0.1,0.6-0.4C37.6,78.6,37.7,78.3,37.7,77.9z"/>
		<path d="M43.7,77.2L43.4,80c0,0.1-0.1,0.2-0.2,0.2h-0.9c-0.1,0-0.1-0.1-0.1-0.2l0.3-2.6c0.1-0.5-0.2-0.8-0.6-0.8
			c-0.4,0-0.8,0.3-0.8,0.8L40.8,80c0,0.1-0.1,0.2-0.2,0.2h-0.9c-0.1,0-0.1-0.1-0.1-0.2l0.5-4.3c0-0.1,0.1-0.2,0.2-0.2h0.9
			c0.1,0,0.1,0.1,0.1,0.2l0,0.2c0,0,0,0.1,0.1,0c0.3-0.3,0.6-0.5,1.1-0.5C43.3,75.6,43.9,76.2,43.7,77.2z"/>
		<path d="M47.7,75.6h0.9c0.1,0,0.1,0.1,0.1,0.2l-0.5,4c-0.2,2-1.9,2.3-3.2,2.1c-0.1,0-0.1-0.1-0.1-0.2l0.1-0.8
			c0-0.1,0.1-0.2,0.2-0.1c1,0.1,1.7-0.1,1.8-1c0,0,0,0-0.1,0c-0.2,0.2-0.6,0.4-1,0.4c-0.6,0-1.4-0.3-1.6-1.2c-0.1-0.3,0-0.7,0-1.1
			c0.1-0.4,0.1-0.8,0.3-1.1c0.3-0.7,1-1.2,1.8-1.2c0.5,0,0.8,0.2,1,0.4c0,0,0.1,0,0.1,0l0-0.2C47.5,75.7,47.6,75.6,47.7,75.6z
			 M47.2,77.9c0-0.4,0-0.5,0-0.7c-0.1-0.3-0.3-0.5-0.6-0.5c-0.4,0-0.6,0.2-0.8,0.5c-0.1,0.2-0.2,0.4-0.2,0.7c0,0.3,0,0.6,0,0.7
			c0.1,0.3,0.3,0.5,0.7,0.5c0.4,0,0.6-0.2,0.8-0.5C47.1,78.4,47.2,78.3,47.2,77.9z"/>
		<path d="M52.4,75.6h0.9c0.1,0,0.1,0.1,0.1,0.2L52.9,80c0,0.1-0.1,0.2-0.2,0.2h-0.9c-0.1,0-0.1-0.1-0.1-0.2l0-0.2c0,0,0-0.1-0.1,0
			c-0.3,0.3-0.6,0.5-1,0.5c-0.8,0-1.4-0.5-1.5-1.3c-0.1-0.3-0.1-0.7,0-1.1c0.1-0.4,0.1-0.8,0.3-1.1c0.3-0.7,1-1.2,1.8-1.2
			c0.4,0,0.7,0.2,0.9,0.4c0,0,0.1,0,0.1,0l0-0.2C52.2,75.7,52.3,75.6,52.4,75.6z M52,77.9c0.1-0.4,0-0.7-0.1-0.9
			c-0.1-0.2-0.3-0.3-0.5-0.3c-0.3,0-0.5,0.1-0.6,0.3c-0.2,0.2-0.3,0.5-0.3,0.9c0,0.4,0,0.7,0.1,0.9c0.1,0.2,0.3,0.4,0.6,0.4
			c0.3,0,0.5-0.1,0.6-0.4C51.8,78.6,51.9,78.3,52,77.9z"/>
		<path d="M53.8,80l0.7-5.9c0-0.1,0.1-0.2,0.2-0.2h0.9c0.1,0,0.1,0.1,0.1,0.2L55.1,80c0,0.1-0.1,0.2-0.2,0.2H54
			C53.9,80.2,53.8,80.1,53.8,80z"/>
		<path d="M59.3,75.6h0.9c0.1,0,0.1,0.1,0.1,0.2L59.9,80c0,0.1-0.1,0.2-0.2,0.2h-0.9c-0.1,0-0.1-0.1-0.1-0.2l0-0.2c0,0,0-0.1-0.1,0
			c-0.3,0.3-0.6,0.5-1,0.5c-0.8,0-1.4-0.5-1.5-1.3c-0.1-0.3-0.1-0.7,0-1.1c0.1-0.4,0.1-0.8,0.3-1.1c0.3-0.7,1-1.2,1.8-1.2
			c0.4,0,0.7,0.2,0.9,0.4c0,0,0.1,0,0.1,0l0-0.2C59.2,75.7,59.2,75.6,59.3,75.6z M58.9,77.9c0.1-0.4,0-0.7-0.1-0.9
			c-0.1-0.2-0.3-0.3-0.5-0.3c-0.3,0-0.5,0.1-0.6,0.3c-0.2,0.2-0.3,0.5-0.3,0.9c0,0.4,0,0.7,0.1,0.9c0.1,0.2,0.3,0.4,0.6,0.4
			c0.3,0,0.5-0.1,0.6-0.4C58.7,78.6,58.8,78.3,58.9,77.9z"/>
		<path d="M67.4,77.1L67.1,80c0,0.1-0.1,0.2-0.2,0.2H66c-0.1,0-0.1-0.1-0.1-0.2l0.3-2.6c0.1-0.5-0.2-0.8-0.6-0.8
			c-0.4,0-0.7,0.3-0.8,0.8L64.5,80c0,0.1-0.1,0.2-0.2,0.2h-0.9c-0.1,0-0.1-0.1-0.1-0.2l0.3-2.6c0.1-0.5-0.2-0.8-0.6-0.8
			c-0.4,0-0.7,0.2-0.8,0.6L62,80c0,0.1-0.1,0.2-0.2,0.2h-0.9c-0.1,0-0.1-0.1-0.1-0.2l0.5-4.3c0-0.1,0.1-0.2,0.2-0.2h0.9
			c0.1,0,0.1,0.1,0.1,0.2l0,0.3c0,0,0,0.1,0.1,0c0.3-0.4,0.7-0.5,1.2-0.5c0.6,0,1,0.3,1.2,0.7c0,0,0,0,0.1,0
			c0.3-0.5,0.8-0.7,1.3-0.7C67.1,75.6,67.6,76.1,67.4,77.1z"/>
		<path d="M23.1,86.7L23.1,86.7c0-0.1,0.1-0.2,0.2-0.2h0.9c0.1,0,0.1,0,0.1,0.1l0,0.1c0,0.3,0.2,0.5,0.7,0.5c0.4,0,0.7-0.2,0.7-0.4
			c0-0.4-0.6-0.3-1.2-0.6c-0.6-0.2-1.1-0.5-1-1.3c0.1-0.9,0.9-1.4,2-1.4c1.1,0,1.8,0.6,1.7,1.4c0,0.1-0.1,0.1-0.2,0.1H26
			c-0.1,0-0.2,0-0.1-0.1l0-0.1c0-0.3-0.2-0.5-0.6-0.5c-0.4,0-0.7,0.1-0.7,0.4c0,0.4,0.6,0.4,1.2,0.6c0.7,0.2,1.3,0.5,1.2,1.3
			c-0.1,0.9-0.9,1.4-2,1.4C23.6,88.1,23,87.5,23.1,86.7z"/>
		<path d="M30.6,86.6c0.1-0.1,0.2-0.1,0.2,0l0.4,0.5c0.1,0.1,0.1,0.1,0,0.2c-0.4,0.5-1.1,0.8-1.8,0.8c-1.1,0-1.7-0.6-1.8-1.6
			c0-0.3,0-0.5,0-0.8c0-0.3,0.1-0.6,0.2-0.9c0.3-0.9,1.1-1.5,2.1-1.5c1.2,0,1.7,0.8,1.7,2c0,0.2,0,0.4,0,0.6c0,0.1-0.1,0.2-0.2,0.2
			h-2.6c0,0-0.1,0-0.1,0.1c0,0.1,0,0.2,0,0.3c0.1,0.4,0.4,0.6,0.9,0.6C30,87,30.4,86.8,30.6,86.6z M29,85c0,0.1-0.1,0.1-0.1,0.2
			c0,0,0,0.1,0,0.1h1.5c0,0,0.1,0,0.1-0.1c0-0.1,0-0.1,0-0.2c-0.1-0.3-0.3-0.6-0.7-0.6C29.4,84.4,29.1,84.6,29,85z"/>
		<path d="M35.3,83.5c0.1,0,0.1,0.1,0.1,0.2l-0.3,0.9c0,0.1-0.1,0.1-0.2,0.1c-0.1,0-0.3,0-0.5,0c-0.4,0-0.8,0.3-0.8,0.8l-0.3,2.4
			c0,0.1-0.1,0.2-0.2,0.2h-0.9c-0.1,0-0.1-0.1-0.1-0.2l0.5-4.3c0-0.1,0.1-0.2,0.2-0.2h0.9c0.1,0,0.1,0.1,0.1,0.2l0,0.3
			c0,0,0,0.1,0.1,0c0.2-0.3,0.6-0.5,1-0.5C35.1,83.4,35.2,83.4,35.3,83.5z"/>
		<path d="M36.6,87.9l-0.8-4.3c0-0.1,0-0.2,0.1-0.2h1c0.1,0,0.1,0.1,0.2,0.1l0.4,2.7c0,0,0.1,0,0.1,0l1-2.7c0-0.1,0.1-0.1,0.2-0.1
			l1,0c0.1,0,0.2,0.1,0.1,0.2L38,87.9c0,0.1-0.1,0.1-0.2,0.1h-1C36.7,88,36.6,87.9,36.6,87.9z"/>
		<path d="M40.1,87.8l0.5-4.3c0-0.1,0.1-0.2,0.2-0.2h0.9c0.1,0,0.1,0.1,0.1,0.2l-0.5,4.3c0,0.1-0.1,0.2-0.2,0.2h-0.9
			C40.1,88,40.1,87.9,40.1,87.8z M40.6,82.3c0.1-0.4,0.4-0.7,0.8-0.7c0.5,0,0.7,0.3,0.7,0.7C42,82.7,41.7,83,41.3,83
			C40.8,83,40.6,82.7,40.6,82.3z"/>
		<path d="M42.4,86.7c-0.1-0.3-0.1-0.7,0-1c0.1-0.4,0.2-0.8,0.3-1c0.4-0.8,1.2-1.3,2.1-1.3c0.9,0,1.6,0.5,1.7,1.3c0,0.1,0,0.2,0,0.3
			c0,0.1-0.1,0.1-0.1,0.2l-0.9,0.1c-0.1,0-0.2,0-0.2-0.1l0-0.1c0-0.3-0.3-0.5-0.7-0.5c-0.4,0-0.7,0.2-0.8,0.5
			c-0.1,0.2-0.2,0.4-0.2,0.7c0,0.3,0,0.6,0,0.7c0.1,0.3,0.3,0.6,0.7,0.6c0.4,0,0.7-0.2,0.8-0.5c0,0,0,0,0,0c0,0,0.1-0.1,0.2-0.1
			l0.9,0.1c0.1,0,0.1,0.1,0.1,0.2c0,0.1,0,0.1-0.1,0.2c-0.3,0.8-1.2,1.3-2.1,1.3C43.2,88.1,42.6,87.6,42.4,86.7z"/>
		<path d="M50,86.6c0.1-0.1,0.2-0.1,0.2,0l0.4,0.5c0.1,0.1,0.1,0.1,0,0.2c-0.4,0.5-1.1,0.8-1.8,0.8c-1.1,0-1.7-0.6-1.8-1.6
			c0-0.3,0-0.5,0-0.8c0-0.3,0.1-0.6,0.2-0.9c0.3-0.9,1.1-1.5,2.1-1.5c1.2,0,1.7,0.8,1.7,2c0,0.2,0,0.4,0,0.6c0,0.1-0.1,0.2-0.2,0.2
			h-2.6c0,0-0.1,0-0.1,0.1c0,0.1,0,0.2,0,0.3c0.1,0.4,0.4,0.6,0.9,0.6C49.4,87,49.7,86.8,50,86.6z M48.3,85c0,0.1-0.1,0.1-0.1,0.2
			c0,0,0,0.1,0,0.1h1.5c0,0,0.1,0,0.1-0.1c0-0.1,0-0.1,0-0.2c-0.1-0.3-0.3-0.6-0.7-0.6C48.7,84.4,48.5,84.6,48.3,85z"/>
		<path d="M2.4,94.5c-0.1-0.3-0.1-0.7,0-1c0.1-0.4,0.2-0.8,0.3-1c0.4-0.8,1.2-1.3,2.1-1.3c0.9,0,1.6,0.5,1.7,1.3c0,0.1,0,0.2,0,0.3
			c0,0.1-0.1,0.1-0.1,0.2L5.5,93c-0.1,0-0.2,0-0.2-0.1l0-0.1c0-0.3-0.3-0.5-0.7-0.5c-0.4,0-0.7,0.2-0.8,0.5
			c-0.1,0.2-0.2,0.4-0.2,0.7c0,0.3,0,0.6,0,0.7c0.1,0.3,0.3,0.6,0.7,0.6c0.4,0,0.7-0.2,0.8-0.5c0,0,0,0,0,0c0,0,0.1-0.1,0.2-0.1
			l0.9,0.1c0.1,0,0.1,0.1,0.1,0.2c0,0.1,0,0.1-0.1,0.2c-0.3,0.8-1.2,1.3-2.1,1.3C3.3,95.9,2.6,95.4,2.4,94.5z"/>
		<path d="M7,94.4c0-0.3,0-0.6,0-0.9c0-0.3,0.1-0.7,0.2-0.9c0.4-0.9,1.1-1.4,2.1-1.4c0.9,0,1.6,0.5,1.7,1.4c0.1,0.3,0.1,0.6,0,0.9
			c0,0.3-0.1,0.6-0.2,0.9c-0.4,0.9-1.2,1.5-2.1,1.5C7.8,95.9,7.1,95.3,7,94.4z M9.8,94.1c0.1-0.2,0.1-0.4,0.1-0.6c0-0.2,0-0.5,0-0.6
			c-0.1-0.4-0.3-0.6-0.7-0.6c-0.4,0-0.7,0.2-0.8,0.6c-0.1,0.2-0.1,0.4-0.1,0.6c0,0.2,0,0.5,0,0.6c0.1,0.4,0.3,0.7,0.7,0.7
			C9.3,94.8,9.6,94.5,9.8,94.1z"/>
		<path d="M11.7,93.6l0.1-0.8c0-0.1,0.1-0.2,0.2-0.2h2.7c0.1,0,0.1,0.1,0.1,0.2l-0.1,0.8c0,0.1-0.1,0.2-0.2,0.2h-2.7
			C11.7,93.7,11.7,93.7,11.7,93.6z"/>
		<path d="M15.3,94.4c0-0.3,0-0.6,0-0.9c0-0.3,0.1-0.7,0.2-0.9c0.4-0.9,1.1-1.4,2.1-1.4c0.9,0,1.6,0.5,1.7,1.4
			c0.1,0.3,0.1,0.6,0,0.9c0,0.3-0.1,0.6-0.2,0.9c-0.4,0.9-1.2,1.5-2.1,1.5C16.1,95.9,15.5,95.3,15.3,94.4z M18.1,94.1
			c0.1-0.2,0.1-0.4,0.1-0.6c0-0.2,0-0.5,0-0.6c-0.1-0.4-0.3-0.6-0.7-0.6c-0.4,0-0.7,0.2-0.8,0.6c-0.1,0.2-0.1,0.4-0.1,0.6
			c0,0.2,0,0.5,0,0.6c0.1,0.4,0.3,0.7,0.7,0.7C17.6,94.8,17.9,94.5,18.1,94.1z"/>
		<path d="M24.3,93.5c0,0.4-0.1,0.8-0.3,1.1c-0.3,0.7-1,1.2-1.8,1.2c-0.4,0-0.7-0.2-0.9-0.4c0,0-0.1,0-0.1,0L21,97.3
			c0,0.1-0.1,0.2-0.2,0.2h-0.9c-0.1,0-0.1-0.1-0.1-0.2l0.7-5.9c0-0.1,0.1-0.2,0.2-0.2h0.9c0.1,0,0.1,0.1,0.1,0.2l0,0.2
			c0,0,0,0.1,0.1,0c0.2-0.3,0.6-0.5,1-0.5c0.8,0,1.4,0.5,1.5,1.3C24.4,92.8,24.4,93.2,24.3,93.5z M23,93.5c0-0.4,0-0.7-0.1-0.9
			c-0.1-0.2-0.3-0.4-0.6-0.4c-0.3,0-0.5,0.1-0.6,0.4c-0.1,0.2-0.2,0.5-0.3,0.9c0,0.4,0,0.7,0.1,0.9c0.1,0.2,0.3,0.3,0.5,0.3
			c0.3,0,0.5-0.1,0.6-0.3C22.9,94.2,23,93.9,23,93.5z"/>
		<path d="M27.9,94.4c0.1-0.1,0.2-0.1,0.2,0l0.4,0.5c0.1,0.1,0.1,0.1,0,0.2c-0.4,0.5-1.1,0.8-1.8,0.8c-1.1,0-1.7-0.6-1.8-1.6
			c0-0.3,0-0.5,0-0.8c0-0.3,0.1-0.6,0.2-0.9c0.3-0.9,1.1-1.5,2.1-1.5c1.2,0,1.7,0.8,1.7,2c0,0.2,0,0.4,0,0.6c0,0.1-0.1,0.2-0.2,0.2
			h-2.6c0,0-0.1,0-0.1,0.1c0,0.1,0,0.2,0,0.3c0.1,0.4,0.4,0.6,0.9,0.6C27.4,94.8,27.7,94.6,27.9,94.4z M26.3,92.8
			c0,0.1-0.1,0.1-0.1,0.2c0,0,0,0.1,0,0.1h1.5c0,0,0.1,0,0.1-0.1c0-0.1,0-0.1,0-0.2c-0.1-0.3-0.3-0.6-0.7-0.6
			C26.7,92.2,26.4,92.4,26.3,92.8z"/>
		<path d="M32.7,91.3c0.1,0,0.1,0.1,0.1,0.2l-0.3,0.9c0,0.1-0.1,0.1-0.2,0.1c-0.1,0-0.3,0-0.5,0c-0.4,0-0.8,0.3-0.8,0.8l-0.3,2.4
			c0,0.1-0.1,0.2-0.2,0.2h-0.9c-0.1,0-0.1-0.1-0.1-0.2l0.5-4.3c0-0.1,0.1-0.2,0.2-0.2h0.9c0.1,0,0.1,0.1,0.1,0.2l0,0.3
			c0,0,0,0.1,0.1,0c0.2-0.3,0.6-0.5,1-0.5C32.4,91.2,32.6,91.2,32.7,91.3z"/>
		<path d="M35.9,91.2h0.9c0.1,0,0.1,0.1,0.1,0.2l-0.5,4.3c0,0.1-0.1,0.2-0.2,0.2h-0.9c-0.1,0-0.1-0.1-0.1-0.2l0-0.2c0,0,0-0.1-0.1,0
			c-0.3,0.3-0.6,0.5-1,0.5c-0.8,0-1.4-0.5-1.5-1.3c-0.1-0.3-0.1-0.7,0-1.1c0.1-0.4,0.1-0.8,0.3-1.1c0.3-0.7,1-1.2,1.8-1.2
			c0.4,0,0.7,0.2,0.9,0.4c0,0,0.1,0,0.1,0l0-0.2C35.8,91.3,35.8,91.2,35.9,91.2z M35.5,93.5c0.1-0.4,0-0.7-0.1-0.9
			c-0.1-0.2-0.3-0.3-0.5-0.3c-0.3,0-0.5,0.1-0.6,0.3c-0.2,0.2-0.3,0.5-0.3,0.9c0,0.4,0,0.7,0.1,0.9c0.1,0.2,0.3,0.4,0.6,0.4
			c0.3,0,0.5-0.1,0.6-0.4C35.3,94.2,35.4,93.9,35.5,93.5z"/>
		<path d="M40.1,92.2h-0.8c0,0-0.1,0-0.1,0.1l-0.2,1.8c-0.1,0.4,0.1,0.6,0.4,0.6h0.2c0.1,0,0.1,0.1,0.1,0.2l-0.1,0.8
			c0,0.1-0.1,0.2-0.2,0.2c-0.2,0-0.3,0-0.5,0c-0.9,0-1.4-0.2-1.3-1.2l0.3-2.3c0,0,0-0.1,0-0.1h-0.4c-0.1,0-0.1-0.1-0.1-0.2l0.1-0.7
			c0-0.1,0.1-0.2,0.2-0.2h0.4c0,0,0.1,0,0.1-0.1l0.1-1c0-0.1,0.1-0.2,0.2-0.2h0.9c0.1,0,0.1,0.1,0.1,0.2l-0.1,1c0,0,0,0.1,0.1,0.1
			h0.8c0.1,0,0.1,0.1,0.1,0.2l-0.1,0.7C40.3,92.2,40.2,92.2,40.1,92.2z"/>
		<path d="M40.7,95.7l0.5-4.3c0-0.1,0.1-0.2,0.2-0.2h0.9c0.1,0,0.1,0.1,0.1,0.2l-0.5,4.3c0,0.1-0.1,0.2-0.2,0.2h-0.9
			C40.7,95.8,40.7,95.7,40.7,95.7z M41.2,90.1c0.1-0.4,0.4-0.7,0.8-0.7c0.5,0,0.7,0.3,0.7,0.7c-0.1,0.4-0.4,0.7-0.8,0.7
			C41.4,90.8,41.2,90.5,41.2,90.1z"/>
		<path d="M43.9,95.7l-0.8-4.3c0-0.1,0-0.2,0.1-0.2h1c0.1,0,0.1,0.1,0.2,0.1l0.4,2.7c0,0,0.1,0,0.1,0l1-2.7c0-0.1,0.1-0.1,0.2-0.1
			l1,0c0.1,0,0.2,0.1,0.1,0.2l-1.8,4.3c0,0.1-0.1,0.1-0.2,0.1h-1C44,95.8,44,95.8,43.9,95.7z"/>
		<path d="M50.2,94.4c0.1-0.1,0.2-0.1,0.2,0l0.4,0.5c0.1,0.1,0.1,0.1,0,0.2c-0.4,0.5-1.1,0.8-1.8,0.8c-1.1,0-1.7-0.6-1.8-1.6
			c0-0.3,0-0.5,0-0.8c0-0.3,0.1-0.6,0.2-0.9c0.3-0.9,1.1-1.5,2.1-1.5c1.2,0,1.7,0.8,1.7,2c0,0.2,0,0.4,0,0.6c0,0.1-0.1,0.2-0.2,0.2
			h-2.6c0,0-0.1,0-0.1,0.1c0,0.1,0,0.2,0,0.3c0.1,0.4,0.4,0.6,0.9,0.6C49.7,94.8,50,94.6,50.2,94.4z M48.6,92.8
			c0,0.1-0.1,0.1-0.1,0.2c0,0,0,0.1,0,0.1H50c0,0,0.1,0,0.1-0.1c0-0.1,0-0.1,0-0.2c-0.1-0.3-0.3-0.6-0.7-0.6
			C49,92.2,48.7,92.4,48.6,92.8z"/>
		<path d="M57.8,93.5c-0.1,0.4-0.1,0.7-0.3,1.1c-0.3,0.8-1,1.3-1.8,1.3c-0.5,0-0.7-0.2-0.9-0.5c0,0-0.1,0-0.1,0l0,0.2
			c0,0.1-0.1,0.2-0.2,0.2h-0.9c-0.1,0-0.1-0.1-0.1-0.2l0.7-5.9c0-0.1,0.1-0.2,0.2-0.2h0.9c0.1,0,0.1,0.1,0.1,0.2l-0.2,1.8
			c0,0,0,0.1,0.1,0c0.2-0.3,0.6-0.4,1-0.4c0.8,0,1.3,0.5,1.5,1.2C57.8,92.7,57.8,93.1,57.8,93.5z M56.5,93.5c0-0.4,0-0.7-0.1-0.9
			c-0.1-0.2-0.3-0.3-0.6-0.3c-0.2,0-0.5,0.1-0.6,0.3c-0.1,0.2-0.2,0.5-0.3,0.9c0,0.4,0,0.7,0.1,0.9c0.1,0.2,0.3,0.4,0.5,0.4
			c0.3,0,0.5-0.1,0.7-0.4C56.4,94.2,56.5,93.9,56.5,93.5z"/>
		<path d="M61.6,91.2h0.9c0.1,0,0.1,0.1,0.1,0.2l-0.5,4.3c0,0.1-0.1,0.2-0.2,0.2H61c-0.1,0-0.1-0.1-0.1-0.2l0-0.2c0,0,0-0.1-0.1,0
			c-0.3,0.3-0.6,0.5-1,0.5c-0.8,0-1.4-0.5-1.5-1.3c-0.1-0.3-0.1-0.7,0-1.1c0.1-0.4,0.1-0.8,0.3-1.1c0.3-0.7,1-1.2,1.8-1.2
			c0.4,0,0.7,0.2,0.9,0.4c0,0,0.1,0,0.1,0l0-0.2C61.5,91.3,61.5,91.2,61.6,91.2z M61.2,93.5c0.1-0.4,0-0.7-0.1-0.9
			c-0.1-0.2-0.3-0.3-0.5-0.3c-0.3,0-0.5,0.1-0.6,0.3c-0.2,0.2-0.3,0.5-0.3,0.9c0,0.4,0,0.7,0.1,0.9c0.1,0.2,0.3,0.4,0.6,0.4
			c0.3,0,0.5-0.1,0.6-0.4C61,94.2,61.1,93.9,61.2,93.5z"/>
		<path d="M67.2,92.8l-0.3,2.9c0,0.1-0.1,0.2-0.2,0.2h-0.9c-0.1,0-0.1-0.1-0.1-0.2L66,93c0.1-0.5-0.2-0.8-0.6-0.8
			c-0.4,0-0.8,0.3-0.8,0.8l-0.3,2.6c0,0.1-0.1,0.2-0.2,0.2h-0.9c-0.1,0-0.1-0.1-0.1-0.2l0.5-4.3c0-0.1,0.1-0.2,0.2-0.2h0.9
			c0.1,0,0.1,0.1,0.1,0.2l0,0.2c0,0,0,0.1,0.1,0c0.3-0.3,0.6-0.5,1.1-0.5C66.8,91.2,67.3,91.8,67.2,92.8z"/>
		<path d="M67.7,95.7l0.7-5.9c0-0.1,0.1-0.2,0.2-0.2h0.9c0.1,0,0.1,0.1,0.1,0.2l-0.4,2.9c0,0,0,0.1,0.1,0l1.3-1.4
			c0.1-0.1,0.1-0.1,0.2-0.1h1c0.1,0,0.2,0.1,0.1,0.2l-1.2,1.4c0,0,0,0,0,0.1l0.9,2.8c0,0.1,0,0.2-0.1,0.2h-1c-0.1,0-0.1,0-0.2-0.1
			l-0.6-2c0,0,0,0-0.1,0l-0.6,0.7c0,0,0,0,0,0.1l-0.2,1.2c0,0.1-0.1,0.2-0.2,0.2h-0.9C67.8,95.8,67.7,95.7,67.7,95.7z"/>
	</g>
</g>
</svg>
